<svg xmlns="http://www.w3.org/2000/svg" xmlns:xlink="http://www.w3.org/1999/xlink" width="317.198" height="273.569" viewBox="0 0 317.198 273.569"><defs><style>.a{fill:none;}.b{fill:#90b8f7;}.c{fill:#428dfc;}.d{fill:#1e1240;}.e{fill:#93baf8;}.f{fill:#fff;}.g{fill:url(#a);}.h{fill:#277ae2;opacity:0.36;}.i{fill:#98bdf9;}.j{fill:#9ec1fb;}.k{fill:#ad263d;}.l{fill:#ffcb48;}.m{fill:#ff9a2e;}.n{fill:#ff6161;}.o{fill:#311e69;}.p{fill:#ffe6e6;}.q{fill:#d95f76;}.r,.s,.u{fill:#9abefa;}.r{opacity:0.3;}.s{opacity:0.47;}.t{fill:#9bbffa;opacity:0.24;}.u{opacity:0.42;}.v{fill:#ef7f18;}.w{opacity:0.5;fill:url(#b);}.x{fill:#ff8f8f;}.y{clip-path:url(#c);}</style><linearGradient id="a" x1="-0.125" y1="0.886" x2="1.125" y2="0.114" gradientUnits="objectBoundingBox"><stop offset="0" stop-color="#9bbffa"/><stop offset="1" stop-color="#7ca9ee"/></linearGradient><linearGradient id="b" x1="-0.316" y1="0.521" x2="1.308" y2="0.521" gradientUnits="objectBoundingBox"><stop offset="0" stop-opacity="0.502"/><stop offset="1" stop-color="#000081"/></linearGradient><clipPath id="c"><path class="a" d="M2415.1,1122.87l-3.564,44.807-35.843.544-2.548-27.152,9.434-18.636Z" transform="translate(-2373.148 -1122.432)"/></clipPath></defs><g transform="translate(-1827.389 -626)"><g transform="translate(1901.19 661.117)"><path class="b" d="M2137.365,920.411c11.25-5.291,26.307-12.262,37.6-17.475a13.894,13.894,0,0,0,5.021-21.307c-20.7-25.844-64.147-78.27-72.721-74.247s3.926,70.739,10.569,103.238A13.9,13.9,0,0,0,2137.365,920.411Z" transform="translate(-2104.369 -807.163)"/><path class="c" d="M2206.538,962.27a.916.916,0,0,0-1.294.079l-6.68,7.548c-1.82-3.95-3.591-7.822-5.277-11.528l5.965-8.3a.917.917,0,0,0-1.49-1.07l-5.35,7.449c-2.606-5.742-4.984-11.033-6.99-15.521l4.7-7.971a.917.917,0,0,0-1.58-.931l-4.036,6.846c-3.323-7.45-5.422-12.239-5.511-12.443a.916.916,0,1,0-1.679.735c.5,1.142,4.535,10.351,10.205,22.948l-7.951-2.459a.917.917,0,0,0-.542,1.752l9.5,2.938c1.527,3.386,3.159,6.984,4.861,10.712l-13.323,1.248a.917.917,0,0,0,.171,1.826l13.959-1.307c1.045,2.286,2.115,4.614,3.2,6.967a.9.9,0,0,0,.171.372q1.581,3.424,3.2,6.9l-13.2,1.236a.917.917,0,0,0,.171,1.826l13.853-1.3c10.369,22.176,21.318,44.41,26.778,51.758a.917.917,0,0,0,1.472-1.093c-5.988-8.06-19.05-35.126-30.434-59.766l7.214-8.151A.918.918,0,0,0,2206.538,962.27Z" transform="translate(-2160.232 -898.171)"/></g><path class="d" d="M2440.715,720.467s-6.13-13.933.387-19.836,10.311-10.4,24.464-5.887c10.863,3.465,25.953,19.168,27.429,30.358S2448.339,739.035,2440.715,720.467Z" transform="translate(-459.03 -58.452)"/><g transform="translate(1924.449 651.586)"><g transform="translate(7.165)"><path class="e" d="M2350.352,992.2H2246.266a11.343,11.343,0,0,1-11.479-12.577L2252.31,778.9a14,14,0,0,1,13.676-12.577H2370.07a11.343,11.343,0,0,1,11.479,12.577l-17.522,200.724A14,14,0,0,1,2350.352,992.2Z" transform="translate(-2234.739 -766.323)"/></g><path class="f" d="M2319.649,992.2H2215.563a11.344,11.344,0,0,1-11.479-12.577L2221.607,778.9a14,14,0,0,1,13.675-12.577h104.085a11.344,11.344,0,0,1,11.479,12.577l-17.523,200.724A14,14,0,0,1,2319.649,992.2Z" transform="translate(-2204.035 -766.323)"/><path class="g" d="M2372.521,828.4H2260.6a1.643,1.643,0,0,0-1.6,1.474l-15.17,173.779a1.331,1.331,0,0,0,1.345,1.474h111.923a1.644,1.644,0,0,0,1.6-1.474l15.17-173.779A1.331,1.331,0,0,0,2372.521,828.4Z" transform="translate(-2234.535 -813.914)"/><path class="h" d="M2261.994,832.923a1.643,1.643,0,0,1,1.6-1.474h110.131l.138-1.574a1.331,1.331,0,0,0-1.345-1.474H2260.6a1.643,1.643,0,0,0-1.6,1.474l-15.17,173.779a1.331,1.331,0,0,0,1.345,1.474h1.792Z" transform="translate(-2234.535 -813.914)"/><g transform="translate(67.934 6.922)"><path class="i" d="M2523.691,795.983h-27.6a.972.972,0,0,0-.947.871.788.788,0,0,0,.795.871h27.6a.972.972,0,0,0,.947-.871A.788.788,0,0,0,2523.691,795.983Z" transform="translate(-2495.14 -795.983)"/></g><g transform="translate(56.626 199.556)"><path class="j" d="M2454.445,1638.381a7.648,7.648,0,0,1-7.731-8.471,9.44,9.44,0,0,1,9.21-8.471,7.649,7.649,0,0,1,7.732,8.471A9.44,9.44,0,0,1,2454.445,1638.381Zm1.365-15.636a7.983,7.983,0,0,0-7.79,7.165,6.469,6.469,0,0,0,6.539,7.165,7.985,7.985,0,0,0,7.791-7.165A6.469,6.469,0,0,0,2455.81,1622.744Z" transform="translate(-2446.681 -1621.438)"/></g></g><g transform="translate(2021.256 764.508)"><path class="k" d="M2670.222,1407.646c-3.658-.655-10.536,12.774-11.909,12.465-2.736-.617-5.369-15.907-8.826-14.974-2.966.8-.793,19.894,7.119,22.188,6.094,1.766,11.38-5.71,12.875-7.932S2672.961,1408.137,2670.222,1407.646Z" transform="translate(-2641.367 -1368.95)"/><path class="k" d="M2651.719,1393.981a10.217,10.217,0,0,0,.714-1.9c-.055-.717-.463-.861-.463-.861s.173-1.661-.916-1.386c-1.734.438-1.936,1.115-2.019,2.63S2649,1395.933,2651.719,1393.981Z" transform="translate(-2641.979 -1357.223)"/><g transform="translate(0 0)"><g transform="translate(0)"><ellipse class="l" cx="17.96" cy="18.518" rx="17.96" ry="18.518" transform="translate(0 11.132) rotate(-18.054)"/></g><g transform="translate(5.987 5.956)"><path class="m" d="M2661.646,1310.162a17.5,17.5,0,0,1-15.362-25.136,16.426,16.426,0,0,1,9.716-8.5,17.045,17.045,0,0,1,21.294,11.216,17.409,17.409,0,0,1-.882,13.115,16.411,16.411,0,0,1-14.766,9.3Zm-.593-32.542a14.378,14.378,0,0,0-4.467.712,14.545,14.545,0,0,0-8.6,7.526,15.525,15.525,0,0,0-.781,11.7,15.144,15.144,0,0,0,18.907,10,14.541,14.541,0,0,0,8.6-7.526,15.525,15.525,0,0,0,.781-11.7h0A15.348,15.348,0,0,0,2661.053,1277.62Z" transform="translate(-2644.521 -1275.727)"/></g><g transform="translate(13.81 9.066)"><g transform="translate(0 2.73)"><path class="m" d="M2691.469,1304.959a6.833,6.833,0,0,0-4.55-4.077,6.078,6.078,0,0,0-4.587,1.042,10.527,10.527,0,0,0-3.809,3.578c-1.036,1.819-.268,3.714,1.069,5.162a6.536,6.536,0,0,0,5.085,2.186c2.3.021,4.651-.471,6.868.43,3.774,1.533,2.733,6.18-.948,7.114-3.072.779-7.019-.136-7.676-3.722-.107-.586-1.925.4-1.826.944.938,5.117,7.318,5.085,11,3.123a6.6,6.6,0,0,0,3.65-4.413c.376-2.208-1.061-3.854-3.068-4.5-2.025-.657-4.123-.342-6.2-.3a6.343,6.343,0,0,1-6.277-3.7c-1.1-2.5,1.234-5.231,3.734-5.7,2.42-.454,5,1.876,5.762,4,.145.407,1.993-.553,1.778-1.158Z" transform="translate(-2678.042 -1300.75)"/></g><g transform="translate(1.848 1.456)"><path class="m" d="M2685.978,1296.578l8.386,25.73c.157.482,2-.481,1.778-1.158q-4.192-12.865-8.386-25.73c-.158-.482-2,.481-1.778,1.158Z" transform="translate(-2685.96 -1295.29)"/></g><g transform="translate(4.762)"><path class="m" d="M2698.468,1290.341q4.194,12.865,8.386,25.73c.157.483,2-.481,1.778-1.158l-8.386-25.73c-.157-.483-2,.481-1.778,1.158Z" transform="translate(-2698.449 -1289.053)"/></g></g></g><g transform="translate(19.284 38.673)"><path class="f" d="M2711.073,1415.947c-2.608-.467-6.851,6.222-9.571,9.99a8.345,8.345,0,0,0,4.719,6.681,28.516,28.516,0,0,0,4.111-4.924C2711.827,1425.472,2713.811,1416.437,2711.073,1415.947Z" transform="translate(-2701.502 -1415.924)"/></g><g transform="translate(23.771 128.673)"><path class="n" d="M2730.155,1805.173c-.559-.952-.482-2.007-.877-3.345l-4.14-.248s.95,1.857.383,2.644c-.247.343-4.7,2.169-4.79,2.655-.154.809,8.283,1.324,9.735.624C2731.225,1807.137,2730.769,1806.217,2730.155,1805.173Z" transform="translate(-2720.729 -1801.58)"/><g transform="translate(0 2.884)"><path class="o" d="M2729.994,1814.263c-.928.028-1.822.634-3.3.629-1.261,0-1.516-.555-1.536-.953-1.108.613-4.353,2-4.432,2.415-.154.809,8.283,1.324,9.735.624.76-.366.3-1.286-.31-2.33A1.585,1.585,0,0,1,2729.994,1814.263Z" transform="translate(-2720.728 -1813.939)"/></g></g><path class="o" d="M2737.318,1361.066s1.294-2.1,3.186-1.63,3.826,1.2,4.374,4.428c.487,2.881.018,4.111,1.477,5.758s6.354,8.989,4.541,13.083-9.741,3.8-13.113-2S2728.47,1363.1,2737.318,1361.066Z" transform="translate(-2706.123 -1333.892)"/><g transform="translate(44.416 128.538)"><path class="n" d="M2810.042,1804.517c.636-.9-.176-1.591-.6-3.336l4.658-.181a9.24,9.24,0,0,0,.637,2.952c.219.362,4.5,2.548,4.555,3.04.087.819-8.363.639-9.753-.178C2808.815,1806.386,2809.345,1805.506,2810.042,1804.517Z" transform="translate(-2809.193 -1801)"/><g transform="translate(0 3.146)"><path class="o" d="M2810.234,1814.48c.923.1,1.764.782,3.234.9,1.257.1,1.556-.429,1.609-.824,1.054.7,4.174,2.352,4.218,2.771.087.818-8.363.639-9.753-.178-.727-.427-.2-1.307.5-2.3A1.563,1.563,0,0,0,2810.234,1814.48Z" transform="translate(-2809.193 -1814.48)"/></g></g><path class="n" d="M2688.927,1581.44a86.275,86.275,0,0,0,12.148,50.595c.57.957,4.01.057,4.01.057.149-1.436-.772-22.416-4.813-29.968-1.473-2.753,1.584-23.728,2.246-23.609C2702.989,1578.6,2689.38,1575.478,2688.927,1581.44Z" transform="translate(-2672.399 -1501.329)"/><path class="o" d="M2719.062,1454.052c.011-2.307-.311-4.387-1.46-4.653-1.213-.281-3.663,7.912-4.083,10.417A23.543,23.543,0,0,0,2719.062,1454.052Z" transform="translate(-2691.429 -1402.908)"/><g transform="translate(23.239 37.007)"><path class="f" d="M2735.514,1409.872c-4.263-1.762-10.694-1.506-13.878,1.632-2.406,2.371-.829,6.3-.812,8.419.023,2.991-2.022,8.177-2.24,11.752a2.944,2.944,0,0,1-.135.625c3.278.339,12.24.778,18.886-1.324a17.38,17.38,0,0,1-1.531-3.477c-1.341-4.708.1-6.583,1.151-9.31C2737.444,1416.923,2739.037,1411.329,2735.514,1409.872Z" transform="translate(-2718.448 -1408.782)"/></g><path class="n" d="M2757.022,1619.448s5.247,18.707,6.306,22.59c.842,3.087,3.724,14.111,6.612,18.448.744,1.117,4.822,2.624,4.8,1.855-.073-2.952-3.72-41.976-4.779-45.082S2757.022,1619.448,2757.022,1619.448Z" transform="translate(-2724.781 -1530.852)"/><path class="k" d="M2723.774,1612.994c-2.026.5-5.664,5.419-5.378,8.7.343,3.92,2.031,19.662,4.082,24.321,1.639,3.725,3.322,10.288,5.373,12.953.1-2.2-.865-22.447-4.82-29.838C2722.146,1627.475,2722.892,1619.272,2723.774,1612.994Z" transform="translate(-2695.156 -1528.331)"/><path class="k" d="M2797.537,1660.389c-.663-8.581-3.7-40.338-4.652-43.127-.478-1.4-3.164-1.091-5.965-.328.6,8.912,6.03,20.548,5.824,27.578C2792.532,1651.711,2796.823,1658.831,2797.537,1660.389Z" transform="translate(-2747.701 -1530.854)"/><g transform="translate(29.201 37.151)"><path class="p" d="M2755.386,1427.974c-1.34-4.708.1-6.583,1.152-9.31.49-1.267,2.083-6.861-1.441-8.318a14.638,14.638,0,0,0-3.669-.946c.12,1.245,2.324,6.544.066,8.249-1.5,1.13-6.346-.083-7.388,1.457s5.48,3.652,6.276,4.234c.414.3.746,4.923.97,9.286a32.56,32.56,0,0,0,5.567-1.176A17.339,17.339,0,0,1,2755.386,1427.974Z" transform="translate(-2743.993 -1409.4)"/></g><path class="o" d="M2688.928,1523.809c.4-5.255,2.834-12.773,6.884-21.21,6.735,1.8,15.454.787,18.714.3a30.912,30.912,0,0,1,2.437,7.749c1.021,7.673.953,18.513,1.382,23.8-2.242.468-6.609,1.306-11.658,1.9-2.115.25-4.348.457-6.6.577a54.874,54.874,0,0,1-11.136-.38A83.038,83.038,0,0,1,2688.928,1523.809Z" transform="translate(-2672.4 -1443.698)"/><path class="o" d="M2753.447,1456.359a16.042,16.042,0,0,1-2.541,7.765c-1.655,2.411-6.99,3.847-8.4,3.495S2752.387,1455.477,2753.447,1456.359Z" transform="translate(-2713.558 -1408.214)"/><g transform="translate(29.995 29.408)"><path class="n" d="M2761.485,1393.095l.78,4.349c.126.716-1.334,2.854-2.617,2.134-.375-.211-.1-1.269.084-2.065l.229-3.885Z" transform="translate(-2756.645 -1389.157)"/><path class="o" d="M2761.026,1398.411a2.541,2.541,0,0,0,1.56-2.086l-1.457.333Z" transform="translate(-2757.845 -1391.634)"/><path class="n" d="M2752.944,1377.553l.54,1.629a2.538,2.538,0,0,1-1.482,3.2,2.176,2.176,0,0,1-2.916-1.6c-.389-1.343.387-2.688.636-3.367C2750.288,1375.874,2752.185,1375.726,2752.944,1377.553Z" transform="translate(-2748.609 -1376.222)"/><path class="n" d="M2766.722,1385.534a2.131,2.131,0,0,0,.04-.449c0-.286.065-.713.491-.505.62.3.541,1.831-.168,1.949C2766.557,1386.617,2766.643,1385.905,2766.722,1385.534Z" transform="translate(-2762.167 -1382.587)"/><path class="n" d="M2748.351,1385.958a2.154,2.154,0,0,1-.084-.442c-.027-.285-.135-.7-.538-.454-.586.363-.355,1.876.362,1.922C2748.623,1387.019,2748.467,1386.32,2748.351,1385.958Z" transform="translate(-2747.396 -1382.94)"/><path class="f" d="M2755.321,1393.166a4.976,4.976,0,0,1-1.642.056,1.981,1.981,0,0,0,.621.9C2754.681,1394.341,2755.1,1393.915,2755.321,1393.166Z" transform="translate(-2752.213 -1389.212)"/><path class="k" d="M2752.057,1396.5a3.329,3.329,0,0,1-1.841-.2,3.439,3.439,0,0,1-.854-.957c.006.025.01.05.017.074a2.177,2.177,0,0,0,2.917,1.6,2.435,2.435,0,0,0,1.53-1.71A3.147,3.147,0,0,1,2752.057,1396.5Z" transform="translate(-2748.903 -1390.853)"/></g><g transform="translate(34.824 59.202)"><path class="d" d="M2777.829,1511.639a30.881,30.881,0,0,0-2.437-7.749,68.782,68.782,0,0,1-7.3.682,118,118,0,0,1,2.1,17.762c.222,5.325.372,10.8.573,14.583,3.651-.526,6.7-1.116,8.446-1.481C2778.782,1530.152,2778.85,1519.312,2777.829,1511.639Z" transform="translate(-2768.091 -1503.89)"/></g><path class="n" d="M2704.3,1421.514c.817-4.082-5.613-3.787-6.982-.915-1.592,3.336-4.574,10.167-6.793,10.738-2.822.726-11.842-12.271-13.678-12-4.346.643,3.438,18.344,11.5,19.525C2693.947,1439.684,2701.454,1435.719,2704.3,1421.514Z" transform="translate(-2662.358 -1379.182)"/><path class="o" d="M2749.63,1455.613c1.607,1.3,6.832,2.005,6.832,2.005l-5.285-4.589A29.1,29.1,0,0,1,2749.63,1455.613Z" transform="translate(-2719.114 -1405.696)"/><g transform="translate(31.502 39.261)"><path class="f" d="M2764.291,1421.514c.817-4.082-5.612-3.787-6.982-.915-.859,1.8-2.124,4.619-3.455,6.922,1.507,1.235,4.457,3.418,6.952,3.885A32.843,32.843,0,0,0,2764.291,1421.514Z" transform="translate(-2753.854 -1418.443)"/></g><path class="o" d="M2694.248,1478.8a12.178,12.178,0,0,0,2.768-1.646l-5.971-4.456A48.093,48.093,0,0,0,2694.248,1478.8Z" transform="translate(-2674.2 -1420.772)"/><path class="k" d="M2697.783,1442.468c-2.08,1.234-4.727,2.515-6.348,2.2-2.981-.574-2.942-1.641-5.755-3.39s-4.566-5.3-6.487-8.338c-1.528-2.415-2.255-4.563-3.477-5.328-.941,4.159,5.75,17.267,12.648,18.278A11.1,11.1,0,0,0,2697.783,1442.468Z" transform="translate(-2662.382 -1386.214)"/><path class="n" d="M2670.9,1415.122a4.848,4.848,0,0,0-1.32-2.409,1.025,1.025,0,0,0-.986-.2s-1.2-1.124-1.7-.2c-.8,1.468-.4,2.017.746,2.992S2670.648,1417.56,2670.9,1415.122Z" transform="translate(-2655.371 -1374.204)"/><path class="p" d="M2770.972,1418.846c.749,1.716-.356,4.681-1.38,7.273-.79,2-3.116,3.139-4.446,3.645a14.085,14.085,0,0,0,4.446,2.109,34.155,34.155,0,0,0,3.357-10.05A2.327,2.327,0,0,0,2770.972,1418.846Z" transform="translate(-2731.009 -1379.491)"/></g><path class="d" d="M2362.907,703.9s-25.184,11.452-31.332,14.568-5.9,12.151,6.763,9.322a46.821,46.821,0,0,0,20.795-10.841Z" transform="translate(-374.356 -66.879)"/><path class="d" d="M2298.812,771.877s-13.094,10.454-11.291,18.2,16.343-4.865,18.05-10.448S2298.812,771.877,2298.812,771.877Z" transform="translate(-343.459 -118.995)"/><g transform="translate(1978.845 626)"><path class="q" d="M2446.865,660.41a10.734,10.734,0,0,1,2.485-1.723c.889-.286,1.058-1.873,2.018-2s1.457,1.2.991,2.022,2.355,4.413.688,6.3S2446.1,662.753,2446.865,660.41Z" transform="translate(-2444.535 -656.684)"/><path class="o" d="M2439.579,673.183s-1.534.488-2.315-1.481c-.509-1.283.528-3.978,1.359-4.334s.831.467,1.141.786c1.688,1.732,4.365,1.566,5.352,3.111s-.723,3.3-1.61,3.295A19.868,19.868,0,0,1,2439.579,673.183Z" transform="translate(-2437.129 -664.808)"/><path class="n" d="M2467.422,687.889l4.8,3.976c.458.724-2.207,5.176-3.929,4.968-.5-.061-.843-.817-.995-1.77l-.671-5.289Z" transform="translate(-2459.739 -680.607)"/><path class="o" d="M2467.2,695.5c.715-.64,1.681-1.529,1.681-1.529a4.085,4.085,0,0,1,.2,2.979,3.911,3.911,0,0,1-1.444,2Z" transform="translate(-2460.183 -685.269)"/><path class="n" d="M2449.554,681.339l2.874,2.117a2.177,2.177,0,0,1,.261,3.026,6.019,6.019,0,0,1-2.106,1.632c-.858.467-1.8,0-2.541-1.036a11.857,11.857,0,0,1-1.68-3.673C2445.855,681.531,2447.58,680.1,2449.554,681.339Z" transform="translate(-2444.139 -675.228)"/><path class="n" d="M2463.393,683.017a3.112,3.112,0,0,0-.123-.649c-.115-.4-.193-1.032.49-.908.995.18,1.492,2.367.54,2.817C2463.593,684.611,2463.43,683.573,2463.393,683.017Z" transform="translate(-2457.111 -675.666)"/><path class="f" d="M2454.136,697.679a5.864,5.864,0,0,1-1.542,1.171.756.756,0,0,0,.723.274A1.028,1.028,0,0,0,2454.136,697.679Z" transform="translate(-2448.985 -688.112)"/><path class="k" d="M2458.507,695.6c.757-.807,2.383.053,3.049-2.335a2.785,2.785,0,0,0-.289-1.517l.063.046a2.178,2.178,0,0,1,.261,3.026,6.016,6.016,0,0,1-2.107,1.632,1.516,1.516,0,0,1-1.6-.107C2458.059,696.254,2458.276,695.842,2458.507,695.6Z" transform="translate(-2453.04 -683.561)"/><g transform="translate(0.709 6.558)"><g transform="translate(0 1.533)"><path class="o" d="M2442.619,693.968l-.051.03a1.762,1.762,0,0,1-1.746.113,1.3,1.3,0,0,1-.656-1.138c-.01-.54.45-1.064,1.332-1.515a.994.994,0,0,1,1.313.394h0C2443.065,692.3,2443.658,693.322,2442.619,693.968Zm-1.264-1.959c-.379.236-.786.577-.778.956a.882.882,0,0,0,.447.788,1.362,1.362,0,0,0,1.339-.11c.559-.324.575-.75.093-1.586a.585.585,0,0,0-.771-.234C2441.585,691.875,2441.471,691.937,2441.354,692.01Z" transform="translate(-2440.165 -691.351)"/></g><g transform="translate(2.557)"><path class="o" d="M2453.274,687.532c-1.04.646-1.7-.34-1.981-.764h0a.994.994,0,0,1,.228-1.352c.794-.591,1.467-.772,1.947-.523a1.3,1.3,0,0,1,.73,1.092,1.762,1.762,0,0,1-.874,1.516Zm-1.64-.992c.536.8.931.969,1.463.618a1.361,1.361,0,0,0,.692-1.152.884.884,0,0,0-.509-.75c-.441-.228-1.139.208-1.513.488a.584.584,0,0,0-.132.8Z" transform="translate(-2451.123 -684.784)"/></g></g><g transform="translate(2.84 8.119)"><path class="o" d="M2450.071,691.709l-.019-.234a.919.919,0,0,0-.752.48l.219.085C2449.633,691.749,2450.066,691.71,2450.071,691.709Z" transform="translate(-2449.3 -691.475)"/></g></g><path class="k" d="M2286.95,842.824a2.373,2.373,0,0,0-1.68,2.447c.041,2.016-.194,4.61,1.194,5.014s4.011-1.522,3.683-2.014-2.31-2.859-1.913-3.007,1.913.384,2.2-.231S2288.262,842.419,2286.95,842.824Z" transform="translate(-341.863 -173.344)"/><g transform="translate(1827.389 716.297)"><path class="r" d="M1877.081,1058.555c-3.948-2.313-4.843-10.43.358-12.22a15.37,15.37,0,0,1,8.843-.664s-1.908-3.625-.819-6.292,6.788,1.86,6.788,1.86-1.381-3.773.554-5.641,8.92,1.161,11.915,6.751c0,0,4.866-5.211,10.589-2.087s16.4,16.905,10.393,17.98S1881.029,1060.868,1877.081,1058.555Z" transform="translate(-1873.827 -1035.046)"/><path class="s" d="M1942.055,1088.652c1.975-.353,2.147-2.079,1.285-4.348-2.969-2.047-7.484-3.318-10.46-4.165-4.908-1.4-9.455-3.656-12.569-2.9s-2.234,5.09-2.234,5.09-9.333-9.283-11.647-7.348.939,6.021.939,6.021-8.519-1.505-11.152,2.015c-1.728,2.311-.981,5.006-.264,6.586C1905.588,1090.939,1936.714,1089.607,1942.055,1088.652Z" transform="translate(-1890.18 -1065.456)"/></g><g transform="translate(2081.864 688.366)"><path class="t" d="M2887.476,845.51s-1.469,3.708,3.17,4.542,15.234-.278,20.087-.371,15.714.742,18.21-.093-.089-4.913-1.809-5.284a7.182,7.182,0,0,0-.931-.132,5.468,5.468,0,0,1-4.393-2.859c-1.274-2.382-3.509-5.336-6.8-5.446-2.217-.074-3.283.623-3.765,1.486a1.7,1.7,0,0,1-2.585.528c-2.45-2.049-6.513-4.483-11.163-3.4-3.794.881-4.927,2.642-5.111,4.183a3.922,3.922,0,0,1-2.325,3.225A4.192,4.192,0,0,0,2887.476,845.51Z" transform="translate(-2867.255 -834.213)"/><path class="u" d="M2926.919,861.147c-2.417-1.227-7.973-4.745-10.036-4.745s-.8,3.436-.8,3.436-12.762-7.772-16.281-5.809,0,5.809,0,5.809a44.026,44.026,0,0,0-7.527,0c-2.209.409-1.84,3.924-1.84,3.925a4.582,4.582,0,0,0,2.631,1.237c4.638.834,15.234-.278,20.087-.371s15.714.742,18.21-.093a1.445,1.445,0,0,0,.858-.672C2931.369,862.44,2928.742,862.072,2926.919,861.147Z" transform="translate(-2869.675 -849.161)"/></g><g transform="translate(1937.847 659.393)"><g transform="translate(6.694 3.964)"><path class="m" d="M2314.466,823.613c3.61,5.793,2.687,12.8-1.2,16.656a33.374,33.374,0,0,1-4.079,2.865c-5.865,3.655-11.835.337-15.961-6.283s-4.543-13.812,1.323-17.468a34.817,34.817,0,0,1,4.429-2.041C2304.47,815.581,2310.9,817.894,2314.466,823.613Z" transform="translate(-2290.132 -816.764)"/></g><g transform="translate(6.694 3.965)"><path class="a" d="M2314.534,835.516a.315.315,0,0,1-.332-.533l2.371-1.478a13.988,13.988,0,0,0,.143-2.721l-2.49,1.551a.315.315,0,0,1-.332-.533l2.772-1.728a14.531,14.531,0,0,0-.425-2.368l-2.692,1.677a.315.315,0,0,1-.332-.533l2.842-1.772a15.026,15.026,0,0,0-1.19-2.771l-2.971,1.852a.315.315,0,0,1-.333-.533l2.988-1.862c-.031-.05-.058-.1-.089-.151a15.4,15.4,0,0,0-2.238-2.808l-2.765,1.724a.315.315,0,0,1-.332-.533l2.628-1.638a14.243,14.243,0,0,0-2.9-2.033l-2.647,1.649a.315.315,0,0,1-.332-.533L2308.2,818a13.45,13.45,0,0,0-2.065-.759l-2.443,1.522a.315.315,0,0,1-.332-.533l1.921-1.2a12.4,12.4,0,0,0-6.3.311,34.8,34.8,0,0,0-4.429,2.041c-5.865,3.655-5.448,10.847-1.323,17.468s10.1,9.939,15.961,6.283a33.419,33.419,0,0,0,4.079-2.865,11.866,11.866,0,0,0,3.157-5.932Z" transform="translate(-2290.132 -816.768)"/><g transform="translate(18.869 3.594)"><path class="v" d="M2371.039,834.223a.3.3,0,0,0,.41.114l2.765-1.724c-.154-.153-.311-.3-.47-.447l-2.627,1.638A.3.3,0,0,0,2371.039,834.223Z" transform="translate(-2370.988 -832.167)"/></g><g transform="translate(15.622 1.233)"><path class="v" d="M2357.126,823.914a.3.3,0,0,0,.41.115l2.647-1.649c-.218-.116-.44-.224-.663-.327L2357.2,823.5A.3.3,0,0,0,2357.126,823.914Z" transform="translate(-2357.075 -822.052)"/></g><g transform="translate(13.099 0.266)"><path class="v" d="M2346.315,819.524a.3.3,0,0,0,.41.114l2.443-1.522c-.283-.078-.568-.149-.854-.208l-1.921,1.2A.3.3,0,0,0,2346.315,819.524Z" transform="translate(-2346.265 -817.908)"/></g><g transform="translate(21.306 6.999)"><path class="v" d="M2381.483,849.038a.3.3,0,0,0,.41.114l2.971-1.852q-.152-.273-.315-.543l-2.988,1.862A.3.3,0,0,0,2381.483,849.038Z" transform="translate(-2381.432 -846.758)"/></g><g transform="translate(22.957 10.312)"><path class="v" d="M2388.557,863.148a.3.3,0,0,0,.41.115l2.692-1.677c-.056-.209-.116-.418-.182-.627l-2.842,1.771A.3.3,0,0,0,2388.557,863.148Z" transform="translate(-2388.506 -860.958)"/></g><g transform="translate(23.634 13.307)"><path class="v" d="M2391.455,875.937a.3.3,0,0,0,.41.114l2.49-1.552q-.017-.353-.05-.709l-2.772,1.728A.3.3,0,0,0,2391.455,875.937Z" transform="translate(-2391.404 -873.791)"/></g><g transform="translate(23.941 16.737)"><path class="v" d="M2392.774,890.385a.3.3,0,0,0,.41.114l1.888-1.176c.06-.275.109-.553.151-.834l-2.372,1.478A.3.3,0,0,0,2392.774,890.385Z" transform="translate(-2392.723 -888.489)"/></g></g><g transform="translate(0 0)"><g transform="translate(0)"><ellipse class="l" cx="12.769" cy="13.953" rx="12.769" ry="13.953" transform="translate(0 13.507) rotate(-31.931)"/></g></g><g transform="translate(6.535 6.564)"><path class="m" d="M2307.984,850.931c-5.414,3.374-12.81,1.317-16.487-4.584s-2.266-13.448,3.147-16.821,12.81-1.317,16.488,4.585S2313.4,847.557,2307.984,850.931Zm-13-20.867c-5.116,3.188-6.437,10.342-2.944,15.946s10.5,7.57,15.613,4.382,6.437-10.342,2.944-15.946S2300.1,826.876,2294.98,830.065Z" transform="translate(-2289.449 -827.902)"/></g><g transform="translate(10.381 9.178)"><g transform="translate(0 1.728)"><path class="m" d="M2315.587,848.588a4.619,4.619,0,0,0-7.023-.833c-1.873,1.651-3.889,4.595-1.65,6.753a5.061,5.061,0,0,0,3.835,1.509c1.68-.147,3.207-.992,4.888-1.138a3.879,3.879,0,0,1,2.829.62c1.567,1.287.959,3.478-.691,4.492-2.063,1.268-5.211,1.161-6.331-1.268-.225-.488-1.594.77-1.389,1.217,1.58,3.429,5.96,2.5,8.387.555,2.044-1.64,3.854-5.783.276-6.92-3.509-1.116-6.664,2.444-9.981-.015-2-1.486-1.759-3.99.4-5.318,1.693-1.039,4.153.281,5.145,1.739.221.325,1.623-.919,1.3-1.392Z" transform="translate(-2305.927 -846.508)"/></g><g transform="translate(0.174 1.594)"><path class="m" d="M2306.724,847.4l10.785,17.306c.241.386,1.639-.85,1.3-1.392l-10.785-17.306c-.241-.386-1.639.85-1.3,1.392Z" transform="translate(-2306.672 -845.934)"/></g><g transform="translate(2.046)"><path class="m" d="M2314.749,840.569l10.784,17.306c.241.386,1.639-.85,1.3-1.392l-10.785-17.306c-.241-.386-1.639.85-1.3,1.392Z" transform="translate(-2314.697 -839.103)"/></g></g></g><g transform="translate(1965.749 637.186)"><path class="d" d="M2433.122,704.624c7.768.426,7.457,24.436.348,31.955-6.394,6.763-30.284,18.021-31.664,8.854-.861-5.718,18.134-12.056,22.626-18.622C2428.429,720.969,2426.224,704.247,2433.122,704.624Z" transform="translate(-2396.931 -704.618)"/><path class="n" d="M2389.034,877.68a2.935,2.935,0,0,0-3.132-1.208l-1.109.267a2.612,2.612,0,0,0-1.149.277,6.467,6.467,0,0,0-2.369,1.7c-.452.871,1.177.051,1.177.051a9.2,9.2,0,0,0-1.394,1.9c-.3.729.94.317.94.317s-.034.457.2.537a17.432,17.432,0,0,0,3.466-1.046c.294-.2,3.911-.344,3.9-1.48A2.673,2.673,0,0,0,2389.034,877.68Z" transform="translate(-2381.011 -836.303)"/></g><rect class="w" width="8.312" height="97.103" rx="4.156" transform="translate(1999.684 706.819) rotate(4.472)"/><g transform="translate(1939.125 734.69)"><path class="o" d="M2318.727,1368.377a2.322,2.322,0,0,1,2.263-.752c2.217.222,2.483,2.893,2.961,3.424s1.187,2.276.861,2.995-1.845,1.455-1.845,1.455-2.2,2.5-4.7,2.346-4.742-2.28-4.707-3.973S2314.927,1366.837,2318.727,1368.377Z" transform="translate(-2302.678 -1310.389)"/><path class="k" d="M2343.086,1306.643a63.574,63.574,0,0,0,16.264-10.881c3.562-3.425,8.116-23.8,12.208-22.992,1.819.361,1.112,21.558-6.75,31.743s-16.2,11.3-16.2,11.3Z" transform="translate(-2325.312 -1237.668)"/><g transform="translate(0 85.33)"><path class="o" d="M2270.646,1509.714c.074-6.52,1.8-13.033,4.018-15.737,1.256-1.527,2.487-2.734,3.325-3.947a4.04,4.04,0,0,0,.545-1.948c5.992,1.327,12.144,1.215,14.411.673,2.476,10.19,4.088,20.933,4.063,25.411-.084,14.629-.449,24.631-5.806,47.688-.268,1.152-4.506-.011-5.56-1.195-3.05-3.427-1.178-16.253,2.054-27.048.974-3.252-3.013-20.088-3.722-20-.345.041-1.961,20.141-3.947,28.974-1.348,5.994-2.989,22.266-12.736,19.769-1.79-.458,3.533-21.607,4.793-25.932C2272.608,1534.616,2270.635,1510.68,2270.646,1509.714Z" transform="translate(-2266.926 -1488.081)"/></g><path class="d" d="M2339,1491.222c-1.334,6.758-2.8,16.77-.321,18.912,3.818,3.3,7.652,7.679,9.022,13.979s-4.656,27.115-6.3,30.265c-.665,1.275-1.935,3.11-3.062,5.3a6.5,6.5,0,0,0,1.282,3.194c1.054,1.184,5.293,2.347,5.561,1.194,5.357-23.057,5.723-33.059,5.806-47.688.026-4.477-1.586-15.22-4.062-25.41A30.47,30.47,0,0,1,2339,1491.222Z" transform="translate(-2320.902 -1404.961)"/><g transform="translate(3.109 67.107)"><path class="x" d="M2280.584,1444.781c-1.265-3.652,1.354-8.1,2.524-15.18,1.112-6.723.776-11.039,2.839-13.533,1.947-2.353,4.9-4.433,12.958-6.054,2-.4,5.271,4.882,5.941,9.387.342,2.305-1.662,4.529-1.37,7.121.5,4.406,2.109,9.192,3.1,13.8.984,4.562-1.844,7.076-8.032,7.464C2292.032,1448.192,2282.293,1449.715,2280.584,1444.781Z" transform="translate(-2280.247 -1409.992)"/></g><g transform="translate(14.139 65.513)"><path class="n" d="M2327.514,1403.161l.1,4.631c.076.768,2.517,2.575,3.624,1.474.324-.322-.255-1.327-.675-2.088l-1.342-3.906Z" transform="translate(-2327.514 -1403.161)"/></g><g transform="translate(14.751 66.55)"><path class="o" d="M2332.177,1409.426a3.316,3.316,0,0,1-2.041-1.819l1.464.139Z" transform="translate(-2330.136 -1407.607)"/></g><g transform="translate(13.999 60.943)"><path class="n" d="M2327.46,1385.11l-.457,1.764a2.694,2.694,0,0,0,1.8,3.287,2.309,2.309,0,0,0,2.975-1.9c.317-1.451-.6-2.82-.912-3.52C2330.153,1383.143,2328.134,1383.12,2327.46,1385.11Z" transform="translate(-2326.914 -1383.577)"/></g><g transform="translate(13.416 63.156)"><path class="n" d="M2325.424,1394.106a2.237,2.237,0,0,1-.073-.473c-.02-.3-.119-.75-.556-.5-.635.364-.443,1.977.316,2.052C2325.675,1395.241,2325.534,1394.494,2325.424,1394.106Z" transform="translate(-2324.414 -1393.06)"/></g><g transform="translate(18.164 62.962)"><path class="n" d="M2344.839,1393.291a2.262,2.262,0,0,0,.058-.475c.009-.3.093-.754.538-.518.646.343.508,1.961-.247,2.062C2344.626,1394.434,2344.742,1393.683,2344.839,1393.291Z" transform="translate(-2344.758 -1392.232)"/></g><g transform="translate(16.03 65.109)"><path class="f" d="M2335.617,1401.487a5.289,5.289,0,0,0,1.743-.058,2.1,2.1,0,0,1-.594,1C2336.378,1402.685,2335.908,1402.264,2335.617,1401.487Z" transform="translate(-2335.617 -1401.429)"/></g><g transform="translate(14.144 65.547)"><path class="k" d="M2329.491,1404.717a3.529,3.529,0,0,0,1.935-.338,3.65,3.65,0,0,0,.837-1.074c0,.026-.008.053-.013.08a2.309,2.309,0,0,1-2.975,1.9,2.584,2.584,0,0,1-1.742-1.7A3.341,3.341,0,0,0,2329.491,1404.717Z" transform="translate(-2327.533 -1403.305)"/></g><path class="o" d="M2345.929,1337.256a7.633,7.633,0,0,0,.49,2.221l2.93,4.862a5.673,5.673,0,0,0,3.81,1.753,24.688,24.688,0,0,0,4.817-2.339,35.746,35.746,0,0,0,8.293-16.065,62.548,62.548,0,0,0,1.368-14.61c-2.167,5.555-4.27,11.836-6.108,13.6A63.38,63.38,0,0,1,2345.929,1337.256Z" transform="translate(-2327.492 -1268.588)"/><path class="k" d="M2455.261,1260.7s.216-2.2-.184-2.693-.155-.886.292-.683.311,1.241.734,1.052,1.014-2.279,2.181-2.534.348,4.739-1.225,5.288S2455.261,1260.7,2455.261,1260.7Z" transform="translate(-2411.014 -1224.704)"/><g transform="translate(19.494 157.907)"><path class="x" d="M2351.2,1799.917c.649-.085,1.9.282,2.38.081s1.23-1.094,2.033-.887,2.423,2.28,3.03,2.751,2.139.869,2.411,1.848h0a.942.942,0,0,1-.942.942h-8.181a1.452,1.452,0,0,1-1.436-1.256C2350.383,1802.622,2350.547,1800,2351.2,1799.917Z" transform="translate(-2350.46 -1799.079)"/></g><g transform="translate(15.041 67.107)"><path class="q" d="M2345.777,1440.318c-.995-4.605-2.607-9.391-3.1-13.8-.292-2.592,1.712-4.816,1.369-7.121-.669-4.5-3.945-9.788-5.941-9.387a48.406,48.406,0,0,0-5.116,1.289c.7,3.165,1.694,9.77-1.61,11.978,0,0,3.242,4.93,4.211,9.244.758,3.376-2.606,9.727-2.069,15.578,1.477-.111,2.916-.238,4.225-.32C2343.932,1447.394,2346.762,1444.88,2345.777,1440.318Z" transform="translate(-2331.377 -1409.992)"/></g><path class="o" d="M2324.414,1452.466a10.347,10.347,0,0,0,6.531,0,13.718,13.718,0,0,0,5.934-4.7Z" transform="translate(-2310.998 -1371.843)"/><path class="n" d="M2313.185,1322.912c3.035-3.837,11.321-6.46,14.79-10.362,3.682-4.14,8.374-26.111,12.466-25.3,1.819.36,1.112,21.557-6.75,31.743s-16.922,11.542-19.385,10.072A4.231,4.231,0,0,1,2313.185,1322.912Z" transform="translate(-2301.728 -1248.771)"/><path class="k" d="M2344.468,1289.406c-.038,0-.077,0-.115,0-2.191-.069-2.191,7.532-3.149,11.64s-3.7,16.3-5.752,19.377-2.671,3.492-8.765,6.368a39.794,39.794,0,0,1-9.614,3.227,4.026,4.026,0,0,0,.875.712c2.462,1.47,11.523.113,19.385-10.072C2344.564,1311.295,2345.74,1292.626,2344.468,1289.406Z" transform="translate(-2305.371 -1250.44)"/><path class="n" d="M2422.981,1275.179s.216-2.2-.184-2.693-.156-.886.292-.683.311,1.241.734,1.052,1.014-2.278,2.182-2.534.348,4.739-1.225,5.288S2422.981,1275.179,2422.981,1275.179Z" transform="translate(-2386.266 -1235.801)"/><g transform="translate(0.001 110.856)"><path class="d" d="M2277.932,1611.1c1.459,8.856.455,25.837-5.845,28.028a41.162,41.162,0,0,1-4.662,1.337c-.54,3.243-.714,5.592-.131,5.742,9.748,2.5,11.388-13.776,12.736-19.769,1.985-8.833,3.6-28.933,3.947-28.974C2283.977,1597.459,2276.473,1602.24,2277.932,1611.1Z" transform="translate(-2266.93 -1597.459)"/></g><g transform="translate(0.413 157.907)"><path class="x" d="M2269.432,1799.917c.649-.085,1.9.282,2.38.081s1.231-1.094,2.033-.887,2.423,2.28,3.029,2.751,2.14.869,2.411,1.848h0a.942.942,0,0,1-.942.942h-8.181a1.452,1.452,0,0,1-1.436-1.256C2268.618,1802.622,2268.783,1800,2269.432,1799.917Z" transform="translate(-2268.696 -1799.079)"/></g><g transform="translate(24.789 0)"><g class="y"><g transform="translate(7.393 4.156)"><g transform="translate(0 0.005)"><path class="m" d="M2404.828,1159.558c.106,9.214,6.251,16.512,13.476,18.07a44.978,44.978,0,0,0,6.723.292c9.329-.108,13.706-8.222,13.584-18.752s-4.877-19.012-14.206-18.9a46.992,46.992,0,0,0-6.521.9C2410.355,1143.154,2404.723,1150.462,2404.828,1159.558Z" transform="translate(-2404.826 -1140.262)"/></g><g transform="translate(0 0.005)"><path class="a" d="M2413.4,1173.141a.425.425,0,0,0-.01-.848l-3.771.044a18.828,18.828,0,0,1-2.141-2.992l3.96-.046a.425.425,0,0,0-.009-.847l-4.409.051a19.65,19.65,0,0,1-1.239-3l4.281-.049a.425.425,0,0,0-.01-.847l-4.521.052a20.262,20.262,0,0,1-.661-4.016l4.725-.055a.426.426,0,0,0-.01-.848l-4.752.055c0-.079-.006-.157-.008-.236a20.8,20.8,0,0,1,.5-4.821l4.4-.051a.425.425,0,0,0-.01-.848l-4.179.048a19.232,19.232,0,0,1,1.815-4.418l4.21-.049a.425.425,0,0,0-.01-.847l-3.685.042a18.223,18.223,0,0,1,1.8-2.365l3.885-.045a.425.425,0,0,0-.009-.847l-3.056.035a16.745,16.745,0,0,1,7.4-4.23,46.992,46.992,0,0,1,6.521-.9c9.329-.108,14.084,8.375,14.206,18.9s-4.255,18.644-13.584,18.752a44.978,44.978,0,0,1-6.723-.292,16.018,16.018,0,0,1-7.9-4.451Z" transform="translate(-2404.826 -1140.262)"/><g transform="translate(0.505 13.577)"><path class="v" d="M2411.77,1198.859a.407.407,0,0,1-.383.428l-4.4.051c.065-.286.134-.57.21-.85l4.179-.048A.407.407,0,0,1,2411.77,1198.859Z" transform="translate(-2406.989 -1198.44)"/></g><g transform="translate(2.529 8.311)"><path class="v" d="M2420.256,1176.294a.407.407,0,0,1-.383.428l-4.209.049c.164-.291.336-.574.515-.854l3.684-.042A.406.406,0,0,1,2420.256,1176.294Z" transform="translate(-2415.664 -1175.875)"/></g><g transform="translate(4.841 5.096)"><path class="v" d="M2429.836,1162.518a.406.406,0,0,1-.383.428l-3.885.045q.4-.443.82-.857l3.056-.035A.406.406,0,0,1,2429.836,1162.518Z" transform="translate(-2425.568 -1162.099)"/></g><g transform="translate(0.009 19.477)"><path class="v" d="M2410.009,1224.141a.407.407,0,0,1-.383.428l-4.725.055q-.027-.421-.037-.847l4.752-.055A.407.407,0,0,1,2410.009,1224.141Z" transform="translate(-2404.864 -1223.722)"/></g><g transform="translate(0.706 24.344)"><path class="v" d="M2412.766,1245a.406.406,0,0,1-.383.428l-4.281.049q-.134-.418-.25-.845l4.521-.052A.407.407,0,0,1,2412.766,1245Z" transform="translate(-2407.853 -1244.576)"/></g><g transform="translate(2.195 28.192)"><path class="v" d="M2419.033,1261.484a.406.406,0,0,1-.383.428l-3.96.046q-.238-.413-.459-.842l4.409-.051A.406.406,0,0,1,2419.033,1261.484Z" transform="translate(-2414.232 -1261.065)"/></g><g transform="translate(4.795 32.032)"><path class="v" d="M2429.536,1277.942a.407.407,0,0,1-.383.428l-3,.035c-.268-.269-.526-.55-.779-.839l3.771-.044A.407.407,0,0,1,2429.536,1277.942Z" transform="translate(-2425.372 -1277.523)"/></g></g><g transform="translate(2.993)"><path class="l" d="M2417.654,1159.275c.12,10.4,7.934,18.745,17.453,18.635s17.138-8.632,17.018-19.034-7.934-18.745-17.453-18.635S2417.533,1148.873,2417.654,1159.275Z" transform="translate(-2417.652 -1140.24)"/></g><g transform="translate(4.188 1.847)"><path class="m" d="M2434.988,1182.562a15.682,15.682,0,0,1-7.4-4.5,18.147,18.147,0,0,1-4.816-12.261c-.111-9.625,7-17.538,15.845-17.641a15.32,15.32,0,0,1,11.433,5.009,18.563,18.563,0,0,1,.284,24.63,15.317,15.317,0,0,1-11.313,5.271A14.934,14.934,0,0,1,2434.988,1182.562Zm7.214-32.238a13.2,13.2,0,0,0-3.563-.446c-7.9.091-14.243,7.223-14.143,15.9a16.43,16.43,0,0,0,4.351,11.1,13.432,13.432,0,0,0,20.2-.233,16.841,16.841,0,0,0-.257-22.305A13.988,13.988,0,0,0,2442.2,1150.324Z" transform="translate(-2422.771 -1148.155)"/></g><g transform="translate(13.2 5.095)"><g transform="translate(0 2.745)"><path class="m" d="M2477.413,1180.982a6.234,6.234,0,0,0-6.334-7.144c-3.371-.016-8.045,1.143-7.725,5.329a6.83,6.83,0,0,0,2.513,4.963c1.827,1.36,4.125,1.878,5.95,3.24a5.235,5.235,0,0,1,2.3,3.164c.425,2.7-2.155,4.367-4.729,3.909-3.219-.574-6.3-3.506-5.246-6.96.211-.693-2.3-.654-2.493-.02-1.485,4.876,3.762,7.873,7.959,8.087,3.532.18,9.076-2.372,6.489-6.731-2.537-4.274-8.913-3.516-10.051-8.973-.688-3.3,1.807-5.6,5.18-5,2.64.472,3.935,4.011,3.627,6.371-.069.526,2.461.531,2.562-.236Z" transform="translate(-2461.39 -1173.838)"/></g><g transform="translate(2.522)"><path class="m" d="M2476.859,1162.741q-2.328,13.565-4.657,27.13c-.1.605,2.415.614,2.561-.236q2.328-13.565,4.656-27.13c.1-.605-2.416-.614-2.561.236Z" transform="translate(-2472.199 -1162.074)"/></g><g transform="translate(5.841 0.073)"><path class="m" d="M2491.081,1163.055q-2.329,13.565-4.657,27.13c-.1.605,2.416.614,2.561-.236l4.657-27.13c.1-.605-2.416-.614-2.561.236Z" transform="translate(-2486.421 -1162.389)"/></g></g></g></g></g></g></g></svg>