<svg xmlns="http://www.w3.org/2000/svg" width="100.69" height="123.858" viewBox="0 0 100.69 123.858"><defs><style>.a{fill:#ed008c;}</style></defs><g transform="translate(-15.226 -20.465)"><rect class="a" width="24.806" height="25.314" transform="translate(91.11 76.991)"/><rect class="a" width="24.806" height="25.314" transform="translate(15.226 76.991)"/><path class="a" d="M74.271,26.463h2.943c19.009,0,27.869,10.169,31.571,37.288l5.886-.26-.785-43.026H17.158L16.2,63.491l5.664.26c.981-10.169,2.158-15.645,4.711-21.122,4.514-10.17,13.934-16.166,25.512-16.166h4.121v93.61c0,9.909-.588,13.038-2.941,15.385-1.964,1.825-5.889,2.607-10.4,2.607H38.354v6.257H92.131v-6.257H87.589c-4.486,0-8.439-.784-10.374-2.607-2.355-2.347-2.943-5.478-2.943-15.385V26.463" transform="translate(0.529 0)"/></g></svg>